<svg width="36" height="32" viewBox="0 0 36 32" fill="none" xmlns="http://www.w3.org/2000/svg">
<path d="M13.7078 15.092C19.6615 15.092 24.4879 8.72114 24.4879 0.862263C24.4879 8.72114 29.3144 15.092 35.2681 15.092C29.3144 15.092 24.4879 21.4629 24.4879 29.3218C24.4879 21.4629 19.6615 15.092 13.7078 15.092Z" fill="#7684FF"/>
<path d="M5.71918 24.3745C8.87777 24.3745 11.4383 20.9604 11.4383 16.749C11.4383 20.9604 13.9989 24.3745 17.1575 24.3745C13.9989 24.3745 11.4383 27.7885 11.4383 32C11.4383 27.7885 8.87777 24.3745 5.71918 24.3745Z" fill="#7684FF"/>
<path d="M0 5.17442C2.38148 5.17442 4.31205 2.85774 4.31205 -3.71933e-05C4.31205 2.85774 6.24262 5.17442 8.62409 5.17442C6.24262 5.17442 4.31205 7.4911 4.31205 10.3489C4.31205 7.4911 2.38148 5.17442 0 5.17442Z" fill="#7684FF"/>
</svg>
